<?xml version="1.0" encoding="utf-8" standalone="no"?>
<!DOCTYPE svg PUBLIC "-//W3C//DTD SVG 1.1//EN"
  "http://www.w3.org/Graphics/SVG/1.1/DTD/svg11.dtd">
<svg xmlns:xlink="http://www.w3.org/1999/xlink" width="515.52pt" height="252pt" viewBox="0 0 515.52 252" xmlns="http://www.w3.org/2000/svg" version="1.1">
 <metadata>
  <rdf:RDF xmlns:dc="http://purl.org/dc/elements/1.1/" xmlns:cc="http://creativecommons.org/ns#" xmlns:rdf="http://www.w3.org/1999/02/22-rdf-syntax-ns#">
   <cc:Work>
    <dc:type rdf:resource="http://purl.org/dc/dcmitype/StillImage"/>
    <dc:date>2026-06-03T19:18:19.033225</dc:date>
    <dc:format>image/svg+xml</dc:format>
    <dc:creator>
     <cc:Agent>
      <dc:title>Matplotlib v3.10.9, https://matplotlib.org/</dc:title>
     </cc:Agent>
    </dc:creator>
   </cc:Work>
  </rdf:RDF>
 </metadata>
 <defs>
  <style type="text/css">*{stroke-linejoin: round; stroke-linecap: butt}</style>
 </defs>
 <g id="figure_1">
  <g id="patch_1">
   <path d="M 0 252 
L 515.52 252 
L 515.52 0 
L 0 0 
z
" style="fill: #ffffff"/>
  </g>
  <g id="axes_1">
   <g id="patch_2">
    <path d="M 39.53353 205.291351 
L 253.216765 205.291351 
L 253.216765 38.23125 
L 39.53353 38.23125 
z
" style="fill: #ffffff"/>
   </g>
   <g id="matplotlib.axis_1">
    <g id="xtick_1">
     <g id="line2d_1">
      <defs>
       <path id="m3c2cc98ceb" d="M 0 0 
L 0 3.5 
" style="stroke: #000000; stroke-width: 0.8"/>
      </defs>
      <g>
       <use xlink:href="#m3c2cc98ceb" x="66.243934" y="205.291351" style="stroke: #000000; stroke-width: 0.8"/>
      </g>
     </g>
     <g id="text_1">
      <!-- A: BLIP-2+SDXL -->
      <g transform="translate(14.086899 235.747808) rotate(-20) scale(0.065 -0.065)">
       <defs>
        <path id="DejaVuSerif-41" d="M 1281 1691 
L 2994 1691 
L 2138 3909 
L 1281 1691 
z
M -38 0 
L -38 331 
L 372 331 
L 2034 4666 
L 2559 4666 
L 4225 331 
L 4684 331 
L 4684 0 
L 2988 0 
L 2988 331 
L 3506 331 
L 3116 1356 
L 1153 1356 
L 763 331 
L 1275 331 
L 1275 0 
L -38 0 
z
" transform="scale(0.015625)"/>
        <path id="DejaVuSerif-3a" d="M 666 325 
Q 666 500 786 622 
Q 906 744 1081 744 
Q 1256 744 1376 622 
Q 1497 500 1497 325 
Q 1497 150 1378 29 
Q 1259 -91 1081 -91 
Q 903 -91 784 29 
Q 666 150 666 325 
z
M 666 2363 
Q 666 2538 786 2658 
Q 906 2778 1081 2778 
Q 1259 2778 1378 2659 
Q 1497 2541 1497 2363 
Q 1497 2184 1378 2065 
Q 1259 1947 1081 1947 
Q 906 1947 786 2067 
Q 666 2188 666 2363 
z
" transform="scale(0.015625)"/>
        <path id="DejaVuSerif-20" transform="scale(0.015625)"/>
        <path id="DejaVuSerif-42" d="M 1581 331 
L 2516 331 
Q 3078 331 3337 575 
Q 3597 819 3597 1350 
Q 3597 1878 3339 2120 
Q 3081 2363 2516 2363 
L 1581 2363 
L 1581 331 
z
M 1581 2694 
L 2375 2694 
Q 2888 2694 3123 2891 
Q 3359 3088 3359 3513 
Q 3359 3941 3123 4136 
Q 2888 4331 2375 4331 
L 1581 4331 
L 1581 2694 
z
M 353 0 
L 353 331 
L 947 331 
L 947 4331 
L 353 4331 
L 353 4666 
L 2656 4666 
Q 3363 4666 3720 4377 
Q 4078 4088 4078 3513 
Q 4078 3097 3829 2850 
Q 3581 2603 3103 2547 
Q 3697 2472 4005 2167 
Q 4313 1863 4313 1350 
Q 4313 656 3875 328 
Q 3438 0 2509 0 
L 353 0 
z
" transform="scale(0.015625)"/>
        <path id="DejaVuSerif-4c" d="M 353 0 
L 353 331 
L 947 331 
L 947 4331 
L 353 4331 
L 353 4666 
L 2175 4666 
L 2175 4331 
L 1581 4331 
L 1581 384 
L 3713 384 
L 3713 1166 
L 4097 1166 
L 4097 0 
L 353 0 
z
" transform="scale(0.015625)"/>
        <path id="DejaVuSerif-49" d="M 1581 331 
L 2175 331 
L 2175 0 
L 353 0 
L 353 331 
L 947 331 
L 947 4331 
L 353 4331 
L 353 4666 
L 2175 4666 
L 2175 4331 
L 1581 4331 
L 1581 331 
z
" transform="scale(0.015625)"/>
        <path id="DejaVuSerif-50" d="M 1581 2375 
L 2406 2375 
Q 2872 2375 3115 2626 
Q 3359 2878 3359 3353 
Q 3359 3831 3115 4081 
Q 2872 4331 2406 4331 
L 1581 4331 
L 1581 2375 
z
M 353 0 
L 353 331 
L 947 331 
L 947 4331 
L 353 4331 
L 353 4666 
L 2559 4666 
Q 3259 4666 3668 4311 
Q 4078 3956 4078 3353 
Q 4078 2753 3668 2397 
Q 3259 2041 2559 2041 
L 1581 2041 
L 1581 331 
L 2303 331 
L 2303 0 
L 353 0 
z
" transform="scale(0.015625)"/>
        <path id="DejaVuSerif-2d" d="M 281 1959 
L 1881 1959 
L 1881 1472 
L 281 1472 
L 281 1959 
z
" transform="scale(0.015625)"/>
        <path id="DejaVuSerif-32" d="M 819 3553 
L 469 3553 
L 469 4384 
Q 803 4563 1142 4656 
Q 1481 4750 1806 4750 
Q 2534 4750 2956 4397 
Q 3378 4044 3378 3438 
Q 3378 2753 2422 1800 
Q 2347 1728 2309 1691 
L 1131 513 
L 3078 513 
L 3078 1088 
L 3444 1088 
L 3444 0 
L 434 0 
L 434 341 
L 1850 1753 
Q 2319 2222 2519 2614 
Q 2719 3006 2719 3438 
Q 2719 3909 2473 4175 
Q 2228 4441 1797 4441 
Q 1350 4441 1106 4219 
Q 863 3997 819 3553 
z
" transform="scale(0.015625)"/>
        <path id="DejaVuSerif-2b" d="M 2931 4013 
L 2931 2259 
L 4684 2259 
L 4684 1753 
L 2931 1753 
L 2931 0 
L 2431 0 
L 2431 1753 
L 678 1753 
L 678 2259 
L 2431 2259 
L 2431 4013 
L 2931 4013 
z
" transform="scale(0.015625)"/>
        <path id="DejaVuSerif-53" d="M 594 225 
L 594 1288 
L 953 1284 
Q 969 753 1261 498 
Q 1553 244 2150 244 
Q 2706 244 2998 464 
Q 3291 684 3291 1106 
Q 3291 1444 3114 1625 
Q 2938 1806 2369 1978 
L 1753 2163 
Q 1084 2366 811 2669 
Q 538 2972 538 3500 
Q 538 4094 959 4422 
Q 1381 4750 2144 4750 
Q 2469 4750 2856 4679 
Q 3244 4609 3681 4475 
L 3681 3481 
L 3328 3481 
Q 3275 3975 2998 4195 
Q 2722 4416 2156 4416 
Q 1663 4416 1405 4214 
Q 1147 4013 1147 3628 
Q 1147 3294 1340 3103 
Q 1534 2913 2163 2725 
L 2741 2553 
Q 3375 2363 3645 2067 
Q 3916 1772 3916 1275 
Q 3916 597 3481 253 
Q 3047 -91 2188 -91 
Q 1803 -91 1404 -12 
Q 1006 66 594 225 
z
" transform="scale(0.015625)"/>
        <path id="DejaVuSerif-44" d="M 1581 331 
L 2163 331 
Q 3072 331 3558 850 
Q 4044 1369 4044 2338 
Q 4044 3306 3559 3818 
Q 3075 4331 2163 4331 
L 1581 4331 
L 1581 331 
z
M 353 0 
L 353 331 
L 947 331 
L 947 4331 
L 353 4331 
L 353 4666 
L 2209 4666 
Q 3416 4666 4089 4050 
Q 4763 3434 4763 2338 
Q 4763 1238 4088 619 
Q 3413 0 2209 0 
L 353 0 
z
" transform="scale(0.015625)"/>
        <path id="DejaVuSerif-58" d="M 2119 1997 
L 978 331 
L 1581 331 
L 1581 0 
L 38 0 
L 38 331 
L 575 331 
L 1919 2291 
L 556 4331 
L 56 4331 
L 56 4666 
L 1906 4666 
L 1906 4331 
L 1356 4331 
L 2356 2828 
L 3384 4331 
L 2784 4331 
L 2784 4666 
L 4313 4666 
L 4313 4331 
L 3788 4331 
L 2553 2534 
L 4025 331 
L 4525 331 
L 4525 0 
L 2675 0 
L 2675 331 
L 3231 331 
L 2119 1997 
z
" transform="scale(0.015625)"/>
       </defs>
       <use xlink:href="#DejaVuSerif-41"/>
       <use xlink:href="#DejaVuSerif-3a" transform="translate(72.216797 0)"/>
       <use xlink:href="#DejaVuSerif-20" transform="translate(105.908203 0)"/>
       <use xlink:href="#DejaVuSerif-42" transform="translate(137.695312 0)"/>
       <use xlink:href="#DejaVuSerif-4c" transform="translate(211.181641 0)"/>
       <use xlink:href="#DejaVuSerif-49" transform="translate(277.587891 0)"/>
       <use xlink:href="#DejaVuSerif-50" transform="translate(317.089844 0)"/>
       <use xlink:href="#DejaVuSerif-2d" transform="translate(378.875 0)"/>
       <use xlink:href="#DejaVuSerif-32" transform="translate(412.664062 0)"/>
       <use xlink:href="#DejaVuSerif-2b" transform="translate(476.287109 0)"/>
       <use xlink:href="#DejaVuSerif-53" transform="translate(560.076172 0)"/>
       <use xlink:href="#DejaVuSerif-44" transform="translate(628.582031 0)"/>
       <use xlink:href="#DejaVuSerif-58" transform="translate(708.757812 0)"/>
       <use xlink:href="#DejaVuSerif-4c" transform="translate(779.949219 0)"/>
      </g>
     </g>
    </g>
    <g id="xtick_2">
     <g id="line2d_2">
      <g>
       <use xlink:href="#m3c2cc98ceb" x="119.664743" y="205.291351" style="stroke: #000000; stroke-width: 0.8"/>
      </g>
     </g>
     <g id="text_2">
      <!-- B: LLaVA+SDXL -->
      <g transform="translate(67.947675 235.587673) rotate(-20) scale(0.065 -0.065)">
       <defs>
        <path id="DejaVuSerif-61" d="M 2547 1044 
L 2547 1747 
L 1806 1747 
Q 1378 1747 1168 1562 
Q 959 1378 959 997 
Q 959 650 1171 447 
Q 1384 244 1747 244 
Q 2106 244 2326 466 
Q 2547 688 2547 1044 
z
M 3122 2075 
L 3122 331 
L 3634 331 
L 3634 0 
L 2547 0 
L 2547 359 
Q 2356 128 2106 18 
Q 1856 -91 1522 -91 
Q 969 -91 644 203 
Q 319 497 319 997 
Q 319 1513 691 1797 
Q 1063 2081 1741 2081 
L 2547 2081 
L 2547 2309 
Q 2547 2688 2317 2895 
Q 2088 3103 1672 3103 
Q 1328 3103 1125 2947 
Q 922 2791 872 2484 
L 575 2484 
L 575 3156 
Q 875 3284 1158 3348 
Q 1441 3413 1709 3413 
Q 2400 3413 2761 3070 
Q 3122 2728 3122 2075 
z
" transform="scale(0.015625)"/>
        <path id="DejaVuSerif-56" d="M 1119 4331 
L 2497 750 
L 3872 4331 
L 3347 4331 
L 3347 4666 
L 4716 4666 
L 4716 4331 
L 4263 4331 
L 2597 0 
L 2059 0 
L 403 4331 
L -63 4331 
L -63 4666 
L 1638 4666 
L 1638 4331 
L 1119 4331 
z
" transform="scale(0.015625)"/>
       </defs>
       <use xlink:href="#DejaVuSerif-42"/>
       <use xlink:href="#DejaVuSerif-3a" transform="translate(73.486328 0)"/>
       <use xlink:href="#DejaVuSerif-20" transform="translate(107.177734 0)"/>
       <use xlink:href="#DejaVuSerif-4c" transform="translate(138.964844 0)"/>
       <use xlink:href="#DejaVuSerif-4c" transform="translate(205.371094 0)"/>
       <use xlink:href="#DejaVuSerif-61" transform="translate(271.777344 0)"/>
       <use xlink:href="#DejaVuSerif-56" transform="translate(331.396484 0)"/>
       <use xlink:href="#DejaVuSerif-41" transform="translate(396.863281 0)"/>
       <use xlink:href="#DejaVuSerif-2b" transform="translate(469.080078 0)"/>
       <use xlink:href="#DejaVuSerif-53" transform="translate(552.869141 0)"/>
       <use xlink:href="#DejaVuSerif-44" transform="translate(621.375 0)"/>
       <use xlink:href="#DejaVuSerif-58" transform="translate(701.550781 0)"/>
       <use xlink:href="#DejaVuSerif-4c" transform="translate(772.742188 0)"/>
      </g>
     </g>
    </g>
    <g id="xtick_3">
     <g id="line2d_3">
      <g>
       <use xlink:href="#m3c2cc98ceb" x="173.085552" y="205.291351" style="stroke: #000000; stroke-width: 0.8"/>
      </g>
     </g>
     <g id="text_3">
      <!-- C: LLaVA+FLUX -->
      <g transform="translate(121.213875 235.643946) rotate(-20) scale(0.065 -0.065)">
       <defs>
        <path id="DejaVuSerif-43" d="M 4513 1234 
Q 4306 581 3820 245 
Q 3334 -91 2591 -91 
Q 2134 -91 1743 65 
Q 1353 222 1050 525 
Q 700 875 529 1320 
Q 359 1766 359 2328 
Q 359 3416 987 4083 
Q 1616 4750 2644 4750 
Q 3025 4750 3456 4650 
Q 3888 4550 4384 4347 
L 4384 3272 
L 4031 3272 
Q 3916 3859 3567 4137 
Q 3219 4416 2591 4416 
Q 1844 4416 1459 3886 
Q 1075 3356 1075 2328 
Q 1075 1303 1459 773 
Q 1844 244 2591 244 
Q 3113 244 3450 492 
Q 3788 741 3938 1234 
L 4513 1234 
z
" transform="scale(0.015625)"/>
        <path id="DejaVuSerif-46" d="M 353 0 
L 353 331 
L 947 331 
L 947 4331 
L 353 4331 
L 353 4666 
L 4172 4666 
L 4172 3628 
L 3788 3628 
L 3788 4281 
L 1581 4281 
L 1581 2719 
L 3175 2719 
L 3175 3303 
L 3559 3303 
L 3559 1753 
L 3175 1753 
L 3175 2338 
L 1581 2338 
L 1581 331 
L 2328 331 
L 2328 0 
L 353 0 
z
" transform="scale(0.015625)"/>
        <path id="DejaVuSerif-55" d="M 897 4331 
L 300 4331 
L 300 4666 
L 2125 4666 
L 2125 4331 
L 1528 4331 
L 1528 1919 
Q 1528 1025 1820 672 
Q 2113 319 2828 319 
Q 3544 319 3836 672 
Q 4128 1025 4128 1919 
L 4128 4331 
L 3531 4331 
L 3531 4666 
L 5106 4666 
L 5106 4331 
L 4513 4331 
L 4513 1856 
Q 4513 791 4103 350 
Q 3694 -91 2713 -91 
Q 1731 -91 1314 353 
Q 897 797 897 1856 
L 897 4331 
z
" transform="scale(0.015625)"/>
       </defs>
       <use xlink:href="#DejaVuSerif-43"/>
       <use xlink:href="#DejaVuSerif-3a" transform="translate(76.513672 0)"/>
       <use xlink:href="#DejaVuSerif-20" transform="translate(110.205078 0)"/>
       <use xlink:href="#DejaVuSerif-4c" transform="translate(141.992188 0)"/>
       <use xlink:href="#DejaVuSerif-4c" transform="translate(208.398438 0)"/>
       <use xlink:href="#DejaVuSerif-61" transform="translate(274.804688 0)"/>
       <use xlink:href="#DejaVuSerif-56" transform="translate(334.423828 0)"/>
       <use xlink:href="#DejaVuSerif-41" transform="translate(399.890625 0)"/>
       <use xlink:href="#DejaVuSerif-2b" transform="translate(472.107422 0)"/>
       <use xlink:href="#DejaVuSerif-46" transform="translate(555.896484 0)"/>
       <use xlink:href="#DejaVuSerif-4c" transform="translate(625.28125 0)"/>
       <use xlink:href="#DejaVuSerif-55" transform="translate(686.1875 0)"/>
       <use xlink:href="#DejaVuSerif-58" transform="translate(770.464844 0)"/>
      </g>
     </g>
    </g>
    <g id="xtick_4">
     <g id="line2d_4">
      <g>
       <use xlink:href="#m3c2cc98ceb" x="226.506361" y="205.291351" style="stroke: #000000; stroke-width: 0.8"/>
      </g>
     </g>
     <g id="text_4">
      <!-- D: LLaVA+ControlNet -->
      <g transform="translate(157.16198 242.00349) rotate(-20) scale(0.065 -0.065)">
       <defs>
        <path id="DejaVuSerif-6f" d="M 1925 219 
Q 2388 219 2623 584 
Q 2859 950 2859 1663 
Q 2859 2375 2623 2739 
Q 2388 3103 1925 3103 
Q 1463 3103 1227 2739 
Q 991 2375 991 1663 
Q 991 950 1228 584 
Q 1466 219 1925 219 
z
M 1925 -91 
Q 1200 -91 759 389 
Q 319 869 319 1663 
Q 319 2456 758 2934 
Q 1197 3413 1925 3413 
Q 2653 3413 3092 2934 
Q 3531 2456 3531 1663 
Q 3531 869 3092 389 
Q 2653 -91 1925 -91 
z
" transform="scale(0.015625)"/>
        <path id="DejaVuSerif-6e" d="M 263 0 
L 263 331 
L 781 331 
L 781 2988 
L 231 2988 
L 231 3322 
L 1356 3322 
L 1356 2731 
Q 1516 3069 1770 3241 
Q 2025 3413 2363 3413 
Q 2913 3413 3172 3097 
Q 3431 2781 3431 2113 
L 3431 331 
L 3944 331 
L 3944 0 
L 2356 0 
L 2356 331 
L 2853 331 
L 2853 1931 
Q 2853 2541 2703 2767 
Q 2553 2994 2175 2994 
Q 1775 2994 1565 2701 
Q 1356 2409 1356 1850 
L 1356 331 
L 1856 331 
L 1856 0 
L 263 0 
z
" transform="scale(0.015625)"/>
        <path id="DejaVuSerif-74" d="M 691 2988 
L 184 2988 
L 184 3322 
L 691 3322 
L 691 4353 
L 1269 4353 
L 1269 3322 
L 2350 3322 
L 2350 2988 
L 1269 2988 
L 1269 878 
Q 1269 456 1350 337 
Q 1431 219 1650 219 
Q 1875 219 1978 351 
Q 2081 484 2088 781 
L 2522 781 
Q 2497 328 2275 118 
Q 2053 -91 1600 -91 
Q 1103 -91 897 129 
Q 691 350 691 878 
L 691 2988 
z
" transform="scale(0.015625)"/>
        <path id="DejaVuSerif-72" d="M 3059 3328 
L 3059 2497 
L 2728 2497 
Q 2713 2744 2591 2866 
Q 2469 2988 2234 2988 
Q 1809 2988 1582 2694 
Q 1356 2400 1356 1850 
L 1356 331 
L 2022 331 
L 2022 0 
L 263 0 
L 263 331 
L 781 331 
L 781 2994 
L 231 2994 
L 231 3322 
L 1356 3322 
L 1356 2731 
Q 1525 3078 1790 3245 
Q 2056 3413 2438 3413 
Q 2578 3413 2733 3391 
Q 2888 3369 3059 3328 
z
" transform="scale(0.015625)"/>
        <path id="DejaVuSerif-6c" d="M 1313 331 
L 1856 331 
L 1856 0 
L 184 0 
L 184 331 
L 738 331 
L 738 4531 
L 184 4531 
L 184 4863 
L 1313 4863 
L 1313 331 
z
" transform="scale(0.015625)"/>
        <path id="DejaVuSerif-4e" d="M 313 0 
L 313 331 
L 941 331 
L 941 4331 
L 313 4331 
L 313 4666 
L 1509 4666 
L 4306 984 
L 4306 4331 
L 3681 4331 
L 3681 4666 
L 5319 4666 
L 5319 4331 
L 4691 4331 
L 4691 -91 
L 4313 -91 
L 1325 3841 
L 1325 331 
L 1953 331 
L 1953 0 
L 313 0 
z
" transform="scale(0.015625)"/>
        <path id="DejaVuSerif-65" d="M 3469 1600 
L 991 1600 
L 991 1575 
Q 991 903 1244 561 
Q 1497 219 1991 219 
Q 2369 219 2611 417 
Q 2853 616 2950 1006 
L 3413 1006 
Q 3275 459 2904 184 
Q 2534 -91 1931 -91 
Q 1203 -91 761 389 
Q 319 869 319 1663 
Q 319 2450 753 2931 
Q 1188 3413 1894 3413 
Q 2647 3413 3050 2948 
Q 3453 2484 3469 1600 
z
M 2791 1931 
Q 2772 2513 2545 2808 
Q 2319 3103 1894 3103 
Q 1497 3103 1269 2806 
Q 1041 2509 991 1931 
L 2791 1931 
z
" transform="scale(0.015625)"/>
       </defs>
       <use xlink:href="#DejaVuSerif-44"/>
       <use xlink:href="#DejaVuSerif-3a" transform="translate(80.175781 0)"/>
       <use xlink:href="#DejaVuSerif-20" transform="translate(113.867188 0)"/>
       <use xlink:href="#DejaVuSerif-4c" transform="translate(145.654297 0)"/>
       <use xlink:href="#DejaVuSerif-4c" transform="translate(212.060547 0)"/>
       <use xlink:href="#DejaVuSerif-61" transform="translate(278.466797 0)"/>
       <use xlink:href="#DejaVuSerif-56" transform="translate(338.085938 0)"/>
       <use xlink:href="#DejaVuSerif-41" transform="translate(403.552734 0)"/>
       <use xlink:href="#DejaVuSerif-2b" transform="translate(475.769531 0)"/>
       <use xlink:href="#DejaVuSerif-43" transform="translate(559.558594 0)"/>
       <use xlink:href="#DejaVuSerif-6f" transform="translate(636.072266 0)"/>
       <use xlink:href="#DejaVuSerif-6e" transform="translate(696.277344 0)"/>
       <use xlink:href="#DejaVuSerif-74" transform="translate(760.681641 0)"/>
       <use xlink:href="#DejaVuSerif-72" transform="translate(800.867188 0)"/>
       <use xlink:href="#DejaVuSerif-6f" transform="translate(848.669922 0)"/>
       <use xlink:href="#DejaVuSerif-6c" transform="translate(908.875 0)"/>
       <use xlink:href="#DejaVuSerif-4e" transform="translate(940.857422 0)"/>
       <use xlink:href="#DejaVuSerif-65" transform="translate(1028.357422 0)"/>
       <use xlink:href="#DejaVuSerif-74" transform="translate(1087.537109 0)"/>
      </g>
     </g>
    </g>
   </g>
   <g id="matplotlib.axis_2">
    <g id="ytick_1">
     <g id="line2d_5">
      <path d="M 39.53353 184.553522 
L 253.216765 184.553522 
" clip-path="url(#p8542cb48fb)" style="fill: none; stroke-dasharray: 1.48,0.64; stroke-dashoffset: 0; stroke: #cccccc; stroke-width: 0.4"/>
     </g>
     <g id="line2d_6">
      <defs>
       <path id="m667620e169" d="M 0 0 
L -3.5 0 
" style="stroke: #000000; stroke-width: 0.8"/>
      </defs>
      <g>
       <use xlink:href="#m667620e169" x="39.53353" y="184.553522" style="stroke: #000000; stroke-width: 0.8"/>
      </g>
     </g>
     <g id="text_5">
      <!-- 6 -->
      <g transform="translate(27.761655 187.402936) scale(0.075 -0.075)">
       <defs>
        <path id="DejaVuSerif-36" d="M 2094 219 
Q 2534 219 2771 542 
Q 3009 866 3009 1472 
Q 3009 2078 2771 2401 
Q 2534 2725 2094 2725 
Q 1647 2725 1412 2412 
Q 1178 2100 1178 1509 
Q 1178 888 1415 553 
Q 1653 219 2094 219 
z
M 1075 2569 
Q 1288 2803 1556 2918 
Q 1825 3034 2163 3034 
Q 2859 3034 3264 2615 
Q 3669 2197 3669 1472 
Q 3669 763 3233 336 
Q 2797 -91 2069 -91 
Q 1278 -91 853 498 
Q 428 1088 428 2181 
Q 428 3406 931 4078 
Q 1434 4750 2350 4750 
Q 2597 4750 2869 4703 
Q 3141 4656 3425 4563 
L 3425 3794 
L 3072 3794 
Q 3034 4109 2831 4275 
Q 2628 4441 2284 4441 
Q 1678 4441 1381 3981 
Q 1084 3522 1075 2569 
z
" transform="scale(0.015625)"/>
       </defs>
       <use xlink:href="#DejaVuSerif-36"/>
      </g>
     </g>
    </g>
    <g id="ytick_2">
     <g id="line2d_7">
      <path d="M 39.53353 156.527536 
L 253.216765 156.527536 
" clip-path="url(#p8542cb48fb)" style="fill: none; stroke-dasharray: 1.48,0.64; stroke-dashoffset: 0; stroke: #cccccc; stroke-width: 0.4"/>
     </g>
     <g id="line2d_8">
      <g>
       <use xlink:href="#m667620e169" x="39.53353" y="156.527536" style="stroke: #000000; stroke-width: 0.8"/>
      </g>
     </g>
     <g id="text_6">
      <!-- 8 -->
      <g transform="translate(27.761655 159.37695) scale(0.075 -0.075)">
       <defs>
        <path id="DejaVuSerif-38" d="M 2981 1275 
Q 2981 1775 2732 2051 
Q 2484 2328 2034 2328 
Q 1584 2328 1336 2051 
Q 1088 1775 1088 1275 
Q 1088 772 1336 495 
Q 1584 219 2034 219 
Q 2484 219 2732 495 
Q 2981 772 2981 1275 
z
M 2853 3541 
Q 2853 3966 2637 4203 
Q 2422 4441 2034 4441 
Q 1650 4441 1433 4203 
Q 1216 3966 1216 3541 
Q 1216 3113 1433 2875 
Q 1650 2638 2034 2638 
Q 2422 2638 2637 2875 
Q 2853 3113 2853 3541 
z
M 2516 2484 
Q 3047 2413 3344 2092 
Q 3641 1772 3641 1275 
Q 3641 619 3225 264 
Q 2809 -91 2034 -91 
Q 1263 -91 845 264 
Q 428 619 428 1275 
Q 428 1772 725 2092 
Q 1022 2413 1556 2484 
Q 1084 2569 832 2842 
Q 581 3116 581 3541 
Q 581 4103 968 4426 
Q 1356 4750 2034 4750 
Q 2713 4750 3100 4426 
Q 3488 4103 3488 3541 
Q 3488 3116 3236 2842 
Q 2984 2569 2516 2484 
z
" transform="scale(0.015625)"/>
       </defs>
       <use xlink:href="#DejaVuSerif-38"/>
      </g>
     </g>
    </g>
    <g id="ytick_3">
     <g id="line2d_9">
      <path d="M 39.53353 128.50155 
L 253.216765 128.50155 
" clip-path="url(#p8542cb48fb)" style="fill: none; stroke-dasharray: 1.48,0.64; stroke-dashoffset: 0; stroke: #cccccc; stroke-width: 0.4"/>
     </g>
     <g id="line2d_10">
      <g>
       <use xlink:href="#m667620e169" x="39.53353" y="128.50155" style="stroke: #000000; stroke-width: 0.8"/>
      </g>
     </g>
     <g id="text_7">
      <!-- 10 -->
      <g transform="translate(22.98978 131.350964) scale(0.075 -0.075)">
       <defs>
        <path id="DejaVuSerif-31" d="M 909 0 
L 909 331 
L 1722 331 
L 1722 4213 
L 781 3603 
L 781 4013 
L 1919 4750 
L 2350 4750 
L 2350 331 
L 3163 331 
L 3163 0 
L 909 0 
z
" transform="scale(0.015625)"/>
        <path id="DejaVuSerif-30" d="M 2034 219 
Q 2513 219 2750 744 
Q 2988 1269 2988 2328 
Q 2988 3391 2750 3916 
Q 2513 4441 2034 4441 
Q 1556 4441 1318 3916 
Q 1081 3391 1081 2328 
Q 1081 1269 1318 744 
Q 1556 219 2034 219 
z
M 2034 -91 
Q 1275 -91 848 546 
Q 422 1184 422 2328 
Q 422 3475 848 4112 
Q 1275 4750 2034 4750 
Q 2797 4750 3222 4112 
Q 3647 3475 3647 2328 
Q 3647 1184 3222 546 
Q 2797 -91 2034 -91 
z
" transform="scale(0.015625)"/>
       </defs>
       <use xlink:href="#DejaVuSerif-31"/>
       <use xlink:href="#DejaVuSerif-30" transform="translate(63.623047 0)"/>
      </g>
     </g>
    </g>
    <g id="ytick_4">
     <g id="line2d_11">
      <path d="M 39.53353 100.475564 
L 253.216765 100.475564 
" clip-path="url(#p8542cb48fb)" style="fill: none; stroke-dasharray: 1.48,0.64; stroke-dashoffset: 0; stroke: #cccccc; stroke-width: 0.4"/>
     </g>
     <g id="line2d_12">
      <g>
       <use xlink:href="#m667620e169" x="39.53353" y="100.475564" style="stroke: #000000; stroke-width: 0.8"/>
      </g>
     </g>
     <g id="text_8">
      <!-- 12 -->
      <g transform="translate(22.98978 103.324978) scale(0.075 -0.075)">
       <use xlink:href="#DejaVuSerif-31"/>
       <use xlink:href="#DejaVuSerif-32" transform="translate(63.623047 0)"/>
      </g>
     </g>
    </g>
    <g id="ytick_5">
     <g id="line2d_13">
      <path d="M 39.53353 72.449578 
L 253.216765 72.449578 
" clip-path="url(#p8542cb48fb)" style="fill: none; stroke-dasharray: 1.48,0.64; stroke-dashoffset: 0; stroke: #cccccc; stroke-width: 0.4"/>
     </g>
     <g id="line2d_14">
      <g>
       <use xlink:href="#m667620e169" x="39.53353" y="72.449578" style="stroke: #000000; stroke-width: 0.8"/>
      </g>
     </g>
     <g id="text_9">
      <!-- 14 -->
      <g transform="translate(22.98978 75.298992) scale(0.075 -0.075)">
       <defs>
        <path id="DejaVuSerif-34" d="M 2234 1581 
L 2234 4063 
L 641 1581 
L 2234 1581 
z
M 3609 0 
L 1484 0 
L 1484 331 
L 2234 331 
L 2234 1247 
L 197 1247 
L 197 1588 
L 2241 4750 
L 2859 4750 
L 2859 1581 
L 3750 1581 
L 3750 1247 
L 2859 1247 
L 2859 331 
L 3609 331 
L 3609 0 
z
" transform="scale(0.015625)"/>
       </defs>
       <use xlink:href="#DejaVuSerif-31"/>
       <use xlink:href="#DejaVuSerif-34" transform="translate(63.623047 0)"/>
      </g>
     </g>
    </g>
    <g id="ytick_6">
     <g id="line2d_15">
      <path d="M 39.53353 44.423592 
L 253.216765 44.423592 
" clip-path="url(#p8542cb48fb)" style="fill: none; stroke-dasharray: 1.48,0.64; stroke-dashoffset: 0; stroke: #cccccc; stroke-width: 0.4"/>
     </g>
     <g id="line2d_16">
      <g>
       <use xlink:href="#m667620e169" x="39.53353" y="44.423592" style="stroke: #000000; stroke-width: 0.8"/>
      </g>
     </g>
     <g id="text_10">
      <!-- 16 -->
      <g transform="translate(22.98978 47.273006) scale(0.075 -0.075)">
       <use xlink:href="#DejaVuSerif-31"/>
       <use xlink:href="#DejaVuSerif-36" transform="translate(63.623047 0)"/>
      </g>
     </g>
    </g>
    <g id="text_11">
     <!-- PSNR (dB) -->
     <g transform="translate(17.118061 146.326378) rotate(-90) scale(0.09 -0.09)">
      <defs>
       <path id="DejaVuSerif-52" d="M 3066 2316 
Q 3284 2256 3442 2114 
Q 3600 1972 3725 1716 
L 4403 331 
L 4972 331 
L 4972 0 
L 3872 0 
L 3144 1484 
Q 2934 1916 2759 2042 
Q 2584 2169 2278 2169 
L 1581 2169 
L 1581 331 
L 2241 331 
L 2241 0 
L 353 0 
L 353 331 
L 947 331 
L 947 4331 
L 353 4331 
L 353 4666 
L 2719 4666 
Q 3400 4666 3770 4341 
Q 4141 4016 4141 3419 
Q 4141 2938 3870 2661 
Q 3600 2384 3066 2316 
z
M 1581 2503 
L 2503 2503 
Q 2975 2503 3200 2726 
Q 3425 2950 3425 3419 
Q 3425 3888 3200 4109 
Q 2975 4331 2503 4331 
L 1581 4331 
L 1581 2503 
z
" transform="scale(0.015625)"/>
       <path id="DejaVuSerif-28" d="M 2041 -997 
Q 1281 -656 893 83 
Q 506 822 506 1931 
Q 506 3044 893 3783 
Q 1281 4522 2041 4863 
L 2041 4556 
Q 1559 4225 1350 3623 
Q 1141 3022 1141 1931 
Q 1141 844 1350 242 
Q 1559 -359 2041 -691 
L 2041 -997 
z
" transform="scale(0.015625)"/>
       <path id="DejaVuSerif-64" d="M 3359 331 
L 3909 331 
L 3909 0 
L 2784 0 
L 2784 519 
Q 2616 206 2355 57 
Q 2094 -91 1709 -91 
Q 1097 -91 708 395 
Q 319 881 319 1663 
Q 319 2444 706 2928 
Q 1094 3413 1709 3413 
Q 2094 3413 2355 3264 
Q 2616 3116 2784 2803 
L 2784 4531 
L 2241 4531 
L 2241 4863 
L 3359 4863 
L 3359 331 
z
M 2784 1497 
L 2784 1825 
Q 2784 2422 2554 2737 
Q 2325 3053 1888 3053 
Q 1444 3053 1217 2703 
Q 991 2353 991 1663 
Q 991 975 1217 622 
Q 1444 269 1888 269 
Q 2325 269 2554 583 
Q 2784 897 2784 1497 
z
" transform="scale(0.015625)"/>
       <path id="DejaVuSerif-29" d="M 453 -997 
L 453 -691 
Q 934 -359 1145 242 
Q 1356 844 1356 1931 
Q 1356 3022 1145 3623 
Q 934 4225 453 4556 
L 453 4863 
Q 1216 4522 1603 3783 
Q 1991 3044 1991 1931 
Q 1991 822 1603 83 
Q 1216 -656 453 -997 
z
" transform="scale(0.015625)"/>
      </defs>
      <use xlink:href="#DejaVuSerif-50"/>
      <use xlink:href="#DejaVuSerif-53" transform="translate(67.285156 0)"/>
      <use xlink:href="#DejaVuSerif-4e" transform="translate(135.791016 0)"/>
      <use xlink:href="#DejaVuSerif-52" transform="translate(223.291016 0)"/>
      <use xlink:href="#DejaVuSerif-20" transform="translate(298.583984 0)"/>
      <use xlink:href="#DejaVuSerif-28" transform="translate(330.371094 0)"/>
      <use xlink:href="#DejaVuSerif-64" transform="translate(369.384766 0)"/>
      <use xlink:href="#DejaVuSerif-42" transform="translate(433.398438 0)"/>
      <use xlink:href="#DejaVuSerif-29" transform="translate(506.884766 0)"/>
     </g>
    </g>
   </g>
   <g id="patch_3">
    <path d="M 54.224252 148.137257 
L 78.263616 148.137257 
L 78.263616 124.266123 
L 54.224252 124.266123 
L 54.224252 148.137257 
z
" clip-path="url(#p8542cb48fb)" style="fill: #4878cf; opacity: 0.75; stroke: #000000; stroke-linejoin: miter"/>
   </g>
   <g id="line2d_17">
    <path d="M 66.243934 148.137257 
L 66.243934 176.832363 
" clip-path="url(#p8542cb48fb)" style="fill: none; stroke: #000000; stroke-linecap: square"/>
   </g>
   <g id="line2d_18">
    <path d="M 66.243934 124.266123 
L 66.243934 88.970897 
" clip-path="url(#p8542cb48fb)" style="fill: none; stroke: #000000; stroke-linecap: square"/>
   </g>
   <g id="line2d_19">
    <path d="M 60.234093 176.832363 
L 72.253775 176.832363 
" clip-path="url(#p8542cb48fb)" style="fill: none; stroke: #000000; stroke-linecap: square"/>
   </g>
   <g id="line2d_20">
    <path d="M 60.234093 88.970897 
L 72.253775 88.970897 
" clip-path="url(#p8542cb48fb)" style="fill: none; stroke: #000000; stroke-linecap: square"/>
   </g>
   <g id="line2d_21">
    <defs>
     <path id="m75ec8dba42" d="M 0 3 
C 0.795609 3 1.55874 2.683901 2.12132 2.12132 
C 2.683901 1.55874 3 0.795609 3 0 
C 3 -0.795609 2.683901 -1.55874 2.12132 -2.12132 
C 1.55874 -2.683901 0.795609 -3 0 -3 
C -0.795609 -3 -1.55874 -2.683901 -2.12132 -2.12132 
C -2.683901 -1.55874 -3 -0.795609 -3 0 
C -3 0.795609 -2.683901 1.55874 -2.12132 2.12132 
C -1.55874 2.683901 -0.795609 3 0 3 
z
" style="stroke: #000000"/>
    </defs>
    <g clip-path="url(#p8542cb48fb)">
     <use xlink:href="#m75ec8dba42" x="66.243934" y="185.296211" style="fill-opacity: 0; stroke: #000000"/>
     <use xlink:href="#m75ec8dba42" x="66.243934" y="79.778373" style="fill-opacity: 0; stroke: #000000"/>
    </g>
   </g>
   <g id="patch_4">
    <path d="M 107.645061 144.360755 
L 131.684425 144.360755 
L 131.684425 120.447582 
L 107.645061 120.447582 
L 107.645061 144.360755 
z
" clip-path="url(#p8542cb48fb)" style="fill: #f28b30; opacity: 0.75; stroke: #000000; stroke-linejoin: miter"/>
   </g>
   <g id="line2d_22">
    <path d="M 119.664743 144.360755 
L 119.664743 178.836221 
" clip-path="url(#p8542cb48fb)" style="fill: none; stroke: #000000; stroke-linecap: square"/>
   </g>
   <g id="line2d_23">
    <path d="M 119.664743 120.447582 
L 119.664743 85.411596 
" clip-path="url(#p8542cb48fb)" style="fill: none; stroke: #000000; stroke-linecap: square"/>
   </g>
   <g id="line2d_24">
    <path d="M 113.654902 178.836221 
L 125.674584 178.836221 
" clip-path="url(#p8542cb48fb)" style="fill: none; stroke: #000000; stroke-linecap: square"/>
   </g>
   <g id="line2d_25">
    <path d="M 113.654902 85.411596 
L 125.674584 85.411596 
" clip-path="url(#p8542cb48fb)" style="fill: none; stroke: #000000; stroke-linecap: square"/>
   </g>
   <g id="line2d_26">
    <g clip-path="url(#p8542cb48fb)">
     <use xlink:href="#m75ec8dba42" x="119.664743" y="180.784027" style="fill-opacity: 0; stroke: #000000"/>
    </g>
   </g>
   <g id="patch_5">
    <path d="M 161.06587 142.066127 
L 185.105234 142.066127 
L 185.105234 113.609242 
L 161.06587 113.609242 
L 161.06587 142.066127 
z
" clip-path="url(#p8542cb48fb)" style="fill: #e05c4b; opacity: 0.75; stroke: #000000; stroke-linejoin: miter"/>
   </g>
   <g id="line2d_27">
    <path d="M 173.085552 142.066127 
L 173.085552 173.217011 
" clip-path="url(#p8542cb48fb)" style="fill: none; stroke: #000000; stroke-linecap: square"/>
   </g>
   <g id="line2d_28">
    <path d="M 173.085552 113.609242 
L 173.085552 74.313306 
" clip-path="url(#p8542cb48fb)" style="fill: none; stroke: #000000; stroke-linecap: square"/>
   </g>
   <g id="line2d_29">
    <path d="M 167.075711 173.217011 
L 179.095393 173.217011 
" clip-path="url(#p8542cb48fb)" style="fill: none; stroke: #000000; stroke-linecap: square"/>
   </g>
   <g id="line2d_30">
    <path d="M 167.075711 74.313306 
L 179.095393 74.313306 
" clip-path="url(#p8542cb48fb)" style="fill: none; stroke: #000000; stroke-linecap: square"/>
   </g>
   <g id="line2d_31">
    <g clip-path="url(#p8542cb48fb)">
     <use xlink:href="#m75ec8dba42" x="173.085552" y="187.552303" style="fill-opacity: 0; stroke: #000000"/>
     <use xlink:href="#m75ec8dba42" x="173.085552" y="185.142068" style="fill-opacity: 0; stroke: #000000"/>
     <use xlink:href="#m75ec8dba42" x="173.085552" y="197.69771" style="fill-opacity: 0; stroke: #000000"/>
    </g>
   </g>
   <g id="patch_6">
    <path d="M 214.486679 132.964688 
L 238.526043 132.964688 
L 238.526043 96.506384 
L 214.486679 96.506384 
L 214.486679 132.964688 
z
" clip-path="url(#p8542cb48fb)" style="fill: #2e9e6b; opacity: 0.75; stroke: #000000; stroke-linejoin: miter"/>
   </g>
   <g id="line2d_32">
    <path d="M 226.506361 132.964688 
L 226.506361 172.166036 
" clip-path="url(#p8542cb48fb)" style="fill: none; stroke: #000000; stroke-linecap: square"/>
   </g>
   <g id="line2d_33">
    <path d="M 226.506361 96.506384 
L 226.506361 45.824891 
" clip-path="url(#p8542cb48fb)" style="fill: none; stroke: #000000; stroke-linecap: square"/>
   </g>
   <g id="line2d_34">
    <path d="M 220.49652 172.166036 
L 232.516202 172.166036 
" clip-path="url(#p8542cb48fb)" style="fill: none; stroke: #000000; stroke-linecap: square"/>
   </g>
   <g id="line2d_35">
    <path d="M 220.49652 45.824891 
L 232.516202 45.824891 
" clip-path="url(#p8542cb48fb)" style="fill: none; stroke: #000000; stroke-linecap: square"/>
   </g>
   <g id="line2d_36"/>
   <g id="line2d_37">
    <path d="M 54.224252 136.257742 
L 78.263616 136.257742 
" clip-path="url(#p8542cb48fb)" style="fill: none; stroke: #000000; stroke-width: 1.5"/>
   </g>
   <g id="line2d_38">
    <path d="M 107.645061 134.00165 
L 131.684425 134.00165 
" clip-path="url(#p8542cb48fb)" style="fill: none; stroke: #000000; stroke-width: 1.5"/>
   </g>
   <g id="line2d_39">
    <path d="M 161.06587 127.009166 
L 185.105234 127.009166 
" clip-path="url(#p8542cb48fb)" style="fill: none; stroke: #000000; stroke-width: 1.5"/>
   </g>
   <g id="line2d_40">
    <path d="M 214.486679 116.597512 
L 238.526043 116.597512 
" clip-path="url(#p8542cb48fb)" style="fill: none; stroke: #000000; stroke-width: 1.5"/>
   </g>
   <g id="patch_7">
    <path d="M 39.53353 205.291351 
L 39.53353 38.23125 
" style="fill: none; stroke: #000000; stroke-width: 0.8; stroke-linejoin: miter; stroke-linecap: square"/>
   </g>
   <g id="patch_8">
    <path d="M 39.53353 205.291351 
L 253.216765 205.291351 
" style="fill: none; stroke: #000000; stroke-width: 0.8; stroke-linejoin: miter; stroke-linecap: square"/>
   </g>
   <g id="text_12">
    <!-- (a) PSNR per Pipeline -->
    <g transform="translate(96.307726 32.23125) scale(0.09 -0.09)">
     <defs>
      <path id="DejaVuSerif-70" d="M 1313 1825 
L 1313 1497 
Q 1313 897 1542 583 
Q 1772 269 2209 269 
Q 2650 269 2876 622 
Q 3103 975 3103 1663 
Q 3103 2353 2876 2703 
Q 2650 3053 2209 3053 
Q 1772 3053 1542 2737 
Q 1313 2422 1313 1825 
z
M 738 2988 
L 184 2988 
L 184 3322 
L 1313 3322 
L 1313 2803 
Q 1481 3116 1742 3264 
Q 2003 3413 2388 3413 
Q 3000 3413 3387 2928 
Q 3775 2444 3775 1663 
Q 3775 881 3387 395 
Q 3000 -91 2388 -91 
Q 2003 -91 1742 57 
Q 1481 206 1313 519 
L 1313 -997 
L 1856 -997 
L 1856 -1331 
L 184 -1331 
L 184 -997 
L 738 -997 
L 738 2988 
z
" transform="scale(0.015625)"/>
      <path id="DejaVuSerif-69" d="M 622 4353 
Q 622 4497 726 4603 
Q 831 4709 978 4709 
Q 1122 4709 1226 4603 
Q 1331 4497 1331 4353 
Q 1331 4206 1228 4103 
Q 1125 4000 978 4000 
Q 831 4000 726 4103 
Q 622 4206 622 4353 
z
M 1356 331 
L 1900 331 
L 1900 0 
L 231 0 
L 231 331 
L 781 331 
L 781 2988 
L 231 2988 
L 231 3322 
L 1356 3322 
L 1356 331 
z
" transform="scale(0.015625)"/>
     </defs>
     <use xlink:href="#DejaVuSerif-28"/>
     <use xlink:href="#DejaVuSerif-61" transform="translate(39.013672 0)"/>
     <use xlink:href="#DejaVuSerif-29" transform="translate(98.632812 0)"/>
     <use xlink:href="#DejaVuSerif-20" transform="translate(137.646484 0)"/>
     <use xlink:href="#DejaVuSerif-50" transform="translate(169.433594 0)"/>
     <use xlink:href="#DejaVuSerif-53" transform="translate(236.71875 0)"/>
     <use xlink:href="#DejaVuSerif-4e" transform="translate(305.224609 0)"/>
     <use xlink:href="#DejaVuSerif-52" transform="translate(392.724609 0)"/>
     <use xlink:href="#DejaVuSerif-20" transform="translate(468.017578 0)"/>
     <use xlink:href="#DejaVuSerif-70" transform="translate(499.804688 0)"/>
     <use xlink:href="#DejaVuSerif-65" transform="translate(563.818359 0)"/>
     <use xlink:href="#DejaVuSerif-72" transform="translate(622.998047 0)"/>
     <use xlink:href="#DejaVuSerif-20" transform="translate(670.800781 0)"/>
     <use xlink:href="#DejaVuSerif-50" transform="translate(702.587891 0)"/>
     <use xlink:href="#DejaVuSerif-69" transform="translate(769.873047 0)"/>
     <use xlink:href="#DejaVuSerif-70" transform="translate(801.855469 0)"/>
     <use xlink:href="#DejaVuSerif-65" transform="translate(865.869141 0)"/>
     <use xlink:href="#DejaVuSerif-6c" transform="translate(925.048828 0)"/>
     <use xlink:href="#DejaVuSerif-69" transform="translate(957.03125 0)"/>
     <use xlink:href="#DejaVuSerif-6e" transform="translate(989.013672 0)"/>
     <use xlink:href="#DejaVuSerif-65" transform="translate(1053.417969 0)"/>
    </g>
   </g>
  </g>
  <g id="axes_2">
   <g id="patch_9">
    <path d="M 293.196765 205.291351 
L 506.88 205.291351 
L 506.88 38.23125 
L 293.196765 38.23125 
z
" style="fill: #ffffff"/>
   </g>
   <g id="matplotlib.axis_3">
    <g id="xtick_5">
     <g id="line2d_41">
      <g>
       <use xlink:href="#m3c2cc98ceb" x="319.907169" y="205.291351" style="stroke: #000000; stroke-width: 0.8"/>
      </g>
     </g>
     <g id="text_13">
      <!-- A: BLIP-2+SDXL -->
      <g transform="translate(267.750134 235.747808) rotate(-20) scale(0.065 -0.065)">
       <use xlink:href="#DejaVuSerif-41"/>
       <use xlink:href="#DejaVuSerif-3a" transform="translate(72.216797 0)"/>
       <use xlink:href="#DejaVuSerif-20" transform="translate(105.908203 0)"/>
       <use xlink:href="#DejaVuSerif-42" transform="translate(137.695312 0)"/>
       <use xlink:href="#DejaVuSerif-4c" transform="translate(211.181641 0)"/>
       <use xlink:href="#DejaVuSerif-49" transform="translate(277.587891 0)"/>
       <use xlink:href="#DejaVuSerif-50" transform="translate(317.089844 0)"/>
       <use xlink:href="#DejaVuSerif-2d" transform="translate(378.875 0)"/>
       <use xlink:href="#DejaVuSerif-32" transform="translate(412.664062 0)"/>
       <use xlink:href="#DejaVuSerif-2b" transform="translate(476.287109 0)"/>
       <use xlink:href="#DejaVuSerif-53" transform="translate(560.076172 0)"/>
       <use xlink:href="#DejaVuSerif-44" transform="translate(628.582031 0)"/>
       <use xlink:href="#DejaVuSerif-58" transform="translate(708.757812 0)"/>
       <use xlink:href="#DejaVuSerif-4c" transform="translate(779.949219 0)"/>
      </g>
     </g>
    </g>
    <g id="xtick_6">
     <g id="line2d_42">
      <g>
       <use xlink:href="#m3c2cc98ceb" x="373.327978" y="205.291351" style="stroke: #000000; stroke-width: 0.8"/>
      </g>
     </g>
     <g id="text_14">
      <!-- B: LLaVA+SDXL -->
      <g transform="translate(321.61091 235.587673) rotate(-20) scale(0.065 -0.065)">
       <use xlink:href="#DejaVuSerif-42"/>
       <use xlink:href="#DejaVuSerif-3a" transform="translate(73.486328 0)"/>
       <use xlink:href="#DejaVuSerif-20" transform="translate(107.177734 0)"/>
       <use xlink:href="#DejaVuSerif-4c" transform="translate(138.964844 0)"/>
       <use xlink:href="#DejaVuSerif-4c" transform="translate(205.371094 0)"/>
       <use xlink:href="#DejaVuSerif-61" transform="translate(271.777344 0)"/>
       <use xlink:href="#DejaVuSerif-56" transform="translate(331.396484 0)"/>
       <use xlink:href="#DejaVuSerif-41" transform="translate(396.863281 0)"/>
       <use xlink:href="#DejaVuSerif-2b" transform="translate(469.080078 0)"/>
       <use xlink:href="#DejaVuSerif-53" transform="translate(552.869141 0)"/>
       <use xlink:href="#DejaVuSerif-44" transform="translate(621.375 0)"/>
       <use xlink:href="#DejaVuSerif-58" transform="translate(701.550781 0)"/>
       <use xlink:href="#DejaVuSerif-4c" transform="translate(772.742188 0)"/>
      </g>
     </g>
    </g>
    <g id="xtick_7">
     <g id="line2d_43">
      <g>
       <use xlink:href="#m3c2cc98ceb" x="426.748787" y="205.291351" style="stroke: #000000; stroke-width: 0.8"/>
      </g>
     </g>
     <g id="text_15">
      <!-- C: LLaVA+FLUX -->
      <g transform="translate(374.87711 235.643946) rotate(-20) scale(0.065 -0.065)">
       <use xlink:href="#DejaVuSerif-43"/>
       <use xlink:href="#DejaVuSerif-3a" transform="translate(76.513672 0)"/>
       <use xlink:href="#DejaVuSerif-20" transform="translate(110.205078 0)"/>
       <use xlink:href="#DejaVuSerif-4c" transform="translate(141.992188 0)"/>
       <use xlink:href="#DejaVuSerif-4c" transform="translate(208.398438 0)"/>
       <use xlink:href="#DejaVuSerif-61" transform="translate(274.804688 0)"/>
       <use xlink:href="#DejaVuSerif-56" transform="translate(334.423828 0)"/>
       <use xlink:href="#DejaVuSerif-41" transform="translate(399.890625 0)"/>
       <use xlink:href="#DejaVuSerif-2b" transform="translate(472.107422 0)"/>
       <use xlink:href="#DejaVuSerif-46" transform="translate(555.896484 0)"/>
       <use xlink:href="#DejaVuSerif-4c" transform="translate(625.28125 0)"/>
       <use xlink:href="#DejaVuSerif-55" transform="translate(686.1875 0)"/>
       <use xlink:href="#DejaVuSerif-58" transform="translate(770.464844 0)"/>
      </g>
     </g>
    </g>
    <g id="xtick_8">
     <g id="line2d_44">
      <g>
       <use xlink:href="#m3c2cc98ceb" x="480.169596" y="205.291351" style="stroke: #000000; stroke-width: 0.8"/>
      </g>
     </g>
     <g id="text_16">
      <!-- D: LLaVA+ControlNet -->
      <g transform="translate(410.825215 242.00349) rotate(-20) scale(0.065 -0.065)">
       <use xlink:href="#DejaVuSerif-44"/>
       <use xlink:href="#DejaVuSerif-3a" transform="translate(80.175781 0)"/>
       <use xlink:href="#DejaVuSerif-20" transform="translate(113.867188 0)"/>
       <use xlink:href="#DejaVuSerif-4c" transform="translate(145.654297 0)"/>
       <use xlink:href="#DejaVuSerif-4c" transform="translate(212.060547 0)"/>
       <use xlink:href="#DejaVuSerif-61" transform="translate(278.466797 0)"/>
       <use xlink:href="#DejaVuSerif-56" transform="translate(338.085938 0)"/>
       <use xlink:href="#DejaVuSerif-41" transform="translate(403.552734 0)"/>
       <use xlink:href="#DejaVuSerif-2b" transform="translate(475.769531 0)"/>
       <use xlink:href="#DejaVuSerif-43" transform="translate(559.558594 0)"/>
       <use xlink:href="#DejaVuSerif-6f" transform="translate(636.072266 0)"/>
       <use xlink:href="#DejaVuSerif-6e" transform="translate(696.277344 0)"/>
       <use xlink:href="#DejaVuSerif-74" transform="translate(760.681641 0)"/>
       <use xlink:href="#DejaVuSerif-72" transform="translate(800.867188 0)"/>
       <use xlink:href="#DejaVuSerif-6f" transform="translate(848.669922 0)"/>
       <use xlink:href="#DejaVuSerif-6c" transform="translate(908.875 0)"/>
       <use xlink:href="#DejaVuSerif-4e" transform="translate(940.857422 0)"/>
       <use xlink:href="#DejaVuSerif-65" transform="translate(1028.357422 0)"/>
       <use xlink:href="#DejaVuSerif-74" transform="translate(1087.537109 0)"/>
      </g>
     </g>
    </g>
   </g>
   <g id="matplotlib.axis_4">
    <g id="ytick_7">
     <g id="line2d_45">
      <path d="M 293.196765 184.728953 
L 506.88 184.728953 
" clip-path="url(#pa5f9e110fb)" style="fill: none; stroke-dasharray: 1.48,0.64; stroke-dashoffset: 0; stroke: #cccccc; stroke-width: 0.4"/>
     </g>
     <g id="line2d_46">
      <g>
       <use xlink:href="#m667620e169" x="293.196765" y="184.728953" style="stroke: #000000; stroke-width: 0.8"/>
      </g>
     </g>
     <g id="text_17">
      <!-- 0.4 -->
      <g transform="translate(274.269421 187.578367) scale(0.075 -0.075)">
       <defs>
        <path id="DejaVuSerif-2e" d="M 603 325 
Q 603 500 722 622 
Q 841 744 1019 744 
Q 1191 744 1312 622 
Q 1434 500 1434 325 
Q 1434 153 1312 31 
Q 1191 -91 1019 -91 
Q 841 -91 722 29 
Q 603 150 603 325 
z
" transform="scale(0.015625)"/>
       </defs>
       <use xlink:href="#DejaVuSerif-30"/>
       <use xlink:href="#DejaVuSerif-2e" transform="translate(63.623047 0)"/>
       <use xlink:href="#DejaVuSerif-34" transform="translate(95.410156 0)"/>
      </g>
     </g>
    </g>
    <g id="ytick_8">
     <g id="line2d_47">
      <path d="M 293.196765 161.277313 
L 506.88 161.277313 
" clip-path="url(#pa5f9e110fb)" style="fill: none; stroke-dasharray: 1.48,0.64; stroke-dashoffset: 0; stroke: #cccccc; stroke-width: 0.4"/>
     </g>
     <g id="line2d_48">
      <g>
       <use xlink:href="#m667620e169" x="293.196765" y="161.277313" style="stroke: #000000; stroke-width: 0.8"/>
      </g>
     </g>
     <g id="text_18">
      <!-- 0.5 -->
      <g transform="translate(274.269421 164.126727) scale(0.075 -0.075)">
       <defs>
        <path id="DejaVuSerif-35" d="M 3219 4666 
L 3219 4153 
L 1081 4153 
L 1081 2816 
Q 1244 2928 1461 2984 
Q 1678 3041 1947 3041 
Q 2703 3041 3140 2622 
Q 3578 2203 3578 1478 
Q 3578 738 3136 323 
Q 2694 -91 1894 -91 
Q 1572 -91 1234 -12 
Q 897 66 544 225 
L 544 1131 
L 897 1131 
Q 925 688 1179 453 
Q 1434 219 1894 219 
Q 2388 219 2653 544 
Q 2919 869 2919 1478 
Q 2919 2084 2655 2407 
Q 2391 2731 1894 2731 
Q 1613 2731 1398 2631 
Q 1184 2531 1019 2322 
L 750 2322 
L 750 4666 
L 3219 4666 
z
" transform="scale(0.015625)"/>
       </defs>
       <use xlink:href="#DejaVuSerif-30"/>
       <use xlink:href="#DejaVuSerif-2e" transform="translate(63.623047 0)"/>
       <use xlink:href="#DejaVuSerif-35" transform="translate(95.410156 0)"/>
      </g>
     </g>
    </g>
    <g id="ytick_9">
     <g id="line2d_49">
      <path d="M 293.196765 137.825674 
L 506.88 137.825674 
" clip-path="url(#pa5f9e110fb)" style="fill: none; stroke-dasharray: 1.48,0.64; stroke-dashoffset: 0; stroke: #cccccc; stroke-width: 0.4"/>
     </g>
     <g id="line2d_50">
      <g>
       <use xlink:href="#m667620e169" x="293.196765" y="137.825674" style="stroke: #000000; stroke-width: 0.8"/>
      </g>
     </g>
     <g id="text_19">
      <!-- 0.6 -->
      <g transform="translate(274.269421 140.675088) scale(0.075 -0.075)">
       <use xlink:href="#DejaVuSerif-30"/>
       <use xlink:href="#DejaVuSerif-2e" transform="translate(63.623047 0)"/>
       <use xlink:href="#DejaVuSerif-36" transform="translate(95.410156 0)"/>
      </g>
     </g>
    </g>
    <g id="ytick_10">
     <g id="line2d_51">
      <path d="M 293.196765 114.374034 
L 506.88 114.374034 
" clip-path="url(#pa5f9e110fb)" style="fill: none; stroke-dasharray: 1.48,0.64; stroke-dashoffset: 0; stroke: #cccccc; stroke-width: 0.4"/>
     </g>
     <g id="line2d_52">
      <g>
       <use xlink:href="#m667620e169" x="293.196765" y="114.374034" style="stroke: #000000; stroke-width: 0.8"/>
      </g>
     </g>
     <g id="text_20">
      <!-- 0.7 -->
      <g transform="translate(274.269421 117.223448) scale(0.075 -0.075)">
       <defs>
        <path id="DejaVuSerif-37" d="M 3609 4347 
L 1784 0 
L 1319 0 
L 3059 4153 
L 903 4153 
L 903 3578 
L 538 3578 
L 538 4666 
L 3609 4666 
L 3609 4347 
z
" transform="scale(0.015625)"/>
       </defs>
       <use xlink:href="#DejaVuSerif-30"/>
       <use xlink:href="#DejaVuSerif-2e" transform="translate(63.623047 0)"/>
       <use xlink:href="#DejaVuSerif-37" transform="translate(95.410156 0)"/>
      </g>
     </g>
    </g>
    <g id="ytick_11">
     <g id="line2d_53">
      <path d="M 293.196765 90.922394 
L 506.88 90.922394 
" clip-path="url(#pa5f9e110fb)" style="fill: none; stroke-dasharray: 1.48,0.64; stroke-dashoffset: 0; stroke: #cccccc; stroke-width: 0.4"/>
     </g>
     <g id="line2d_54">
      <g>
       <use xlink:href="#m667620e169" x="293.196765" y="90.922394" style="stroke: #000000; stroke-width: 0.8"/>
      </g>
     </g>
     <g id="text_21">
      <!-- 0.8 -->
      <g transform="translate(274.269421 93.771808) scale(0.075 -0.075)">
       <use xlink:href="#DejaVuSerif-30"/>
       <use xlink:href="#DejaVuSerif-2e" transform="translate(63.623047 0)"/>
       <use xlink:href="#DejaVuSerif-38" transform="translate(95.410156 0)"/>
      </g>
     </g>
    </g>
    <g id="ytick_12">
     <g id="line2d_55">
      <path d="M 293.196765 67.470754 
L 506.88 67.470754 
" clip-path="url(#pa5f9e110fb)" style="fill: none; stroke-dasharray: 1.48,0.64; stroke-dashoffset: 0; stroke: #cccccc; stroke-width: 0.4"/>
     </g>
     <g id="line2d_56">
      <g>
       <use xlink:href="#m667620e169" x="293.196765" y="67.470754" style="stroke: #000000; stroke-width: 0.8"/>
      </g>
     </g>
     <g id="text_22">
      <!-- 0.9 -->
      <g transform="translate(274.269421 70.320168) scale(0.075 -0.075)">
       <defs>
        <path id="DejaVuSerif-39" d="M 2994 2091 
Q 2784 1856 2512 1740 
Q 2241 1625 1900 1625 
Q 1206 1625 804 2044 
Q 403 2463 403 3188 
Q 403 3897 839 4323 
Q 1275 4750 2003 4750 
Q 2794 4750 3217 4161 
Q 3641 3572 3641 2478 
Q 3641 1253 3137 581 
Q 2634 -91 1722 -91 
Q 1475 -91 1203 -44 
Q 931 3 647 97 
L 647 872 
L 997 872 
Q 1038 556 1241 387 
Q 1444 219 1784 219 
Q 2391 219 2687 676 
Q 2984 1134 2994 2091 
z
M 1978 4441 
Q 1534 4441 1298 4117 
Q 1063 3794 1063 3188 
Q 1063 2581 1298 2256 
Q 1534 1931 1978 1931 
Q 2422 1931 2658 2245 
Q 2894 2559 2894 3150 
Q 2894 3772 2656 4106 
Q 2419 4441 1978 4441 
z
" transform="scale(0.015625)"/>
       </defs>
       <use xlink:href="#DejaVuSerif-30"/>
       <use xlink:href="#DejaVuSerif-2e" transform="translate(63.623047 0)"/>
       <use xlink:href="#DejaVuSerif-39" transform="translate(95.410156 0)"/>
      </g>
     </g>
    </g>
    <g id="ytick_13">
     <g id="line2d_57">
      <path d="M 293.196765 44.019115 
L 506.88 44.019115 
" clip-path="url(#pa5f9e110fb)" style="fill: none; stroke-dasharray: 1.48,0.64; stroke-dashoffset: 0; stroke: #cccccc; stroke-width: 0.4"/>
     </g>
     <g id="line2d_58">
      <g>
       <use xlink:href="#m667620e169" x="293.196765" y="44.019115" style="stroke: #000000; stroke-width: 0.8"/>
      </g>
     </g>
     <g id="text_23">
      <!-- 1.0 -->
      <g transform="translate(274.269421 46.868529) scale(0.075 -0.075)">
       <use xlink:href="#DejaVuSerif-31"/>
       <use xlink:href="#DejaVuSerif-2e" transform="translate(63.623047 0)"/>
       <use xlink:href="#DejaVuSerif-30" transform="translate(95.410156 0)"/>
      </g>
     </g>
    </g>
    <g id="text_24">
     <!-- LPIPS (↓ better) -->
     <g transform="translate(268.397703 159.782785) rotate(-90) scale(0.09 -0.09)">
      <defs>
       <path id="DejaVuSerif-2193" d="M 2934 4631 
L 2934 606 
L 3988 1209 
L 3988 1175 
L 2697 -128 
L 2666 -128 
L 1375 1175 
L 1375 1209 
L 2428 606 
L 2428 4631 
L 2934 4631 
z
" transform="scale(0.015625)"/>
       <path id="DejaVuSerif-62" d="M 738 331 
L 738 4531 
L 184 4531 
L 184 4863 
L 1313 4863 
L 1313 2803 
Q 1481 3116 1742 3264 
Q 2003 3413 2388 3413 
Q 3000 3413 3387 2928 
Q 3775 2444 3775 1663 
Q 3775 881 3387 395 
Q 3000 -91 2388 -91 
Q 2003 -91 1742 57 
Q 1481 206 1313 519 
L 1313 0 
L 184 0 
L 184 331 
L 738 331 
z
M 1313 1497 
Q 1313 897 1542 583 
Q 1772 269 2209 269 
Q 2650 269 2876 622 
Q 3103 975 3103 1663 
Q 3103 2353 2876 2703 
Q 2650 3053 2209 3053 
Q 1772 3053 1542 2737 
Q 1313 2422 1313 1825 
L 1313 1497 
z
" transform="scale(0.015625)"/>
      </defs>
      <use xlink:href="#DejaVuSerif-4c"/>
      <use xlink:href="#DejaVuSerif-50" transform="translate(66.40625 0)"/>
      <use xlink:href="#DejaVuSerif-49" transform="translate(133.691406 0)"/>
      <use xlink:href="#DejaVuSerif-50" transform="translate(173.193359 0)"/>
      <use xlink:href="#DejaVuSerif-53" transform="translate(240.478516 0)"/>
      <use xlink:href="#DejaVuSerif-20" transform="translate(308.984375 0)"/>
      <use xlink:href="#DejaVuSerif-28" transform="translate(340.771484 0)"/>
      <use xlink:href="#DejaVuSerif-2193" transform="translate(379.785156 0)"/>
      <use xlink:href="#DejaVuSerif-20" transform="translate(463.574219 0)"/>
      <use xlink:href="#DejaVuSerif-62" transform="translate(495.361328 0)"/>
      <use xlink:href="#DejaVuSerif-65" transform="translate(559.375 0)"/>
      <use xlink:href="#DejaVuSerif-74" transform="translate(618.554688 0)"/>
      <use xlink:href="#DejaVuSerif-74" transform="translate(658.740234 0)"/>
      <use xlink:href="#DejaVuSerif-65" transform="translate(698.925781 0)"/>
      <use xlink:href="#DejaVuSerif-72" transform="translate(758.105469 0)"/>
      <use xlink:href="#DejaVuSerif-29" transform="translate(805.908203 0)"/>
     </g>
    </g>
   </g>
   <g id="patch_10">
    <path d="M 307.887487 100.62551 
L 331.926851 100.62551 
L 331.926851 73.755794 
L 307.887487 73.755794 
L 307.887487 100.62551 
z
" clip-path="url(#pa5f9e110fb)" style="fill: #4878cf; opacity: 0.75; stroke: #000000; stroke-linejoin: miter"/>
   </g>
   <g id="line2d_59">
    <path d="M 319.907169 100.62551 
L 319.907169 132.455248 
" clip-path="url(#pa5f9e110fb)" style="fill: none; stroke: #000000; stroke-linecap: square"/>
   </g>
   <g id="line2d_60">
    <path d="M 319.907169 73.755794 
L 319.907169 50.9608 
" clip-path="url(#pa5f9e110fb)" style="fill: none; stroke: #000000; stroke-linecap: square"/>
   </g>
   <g id="line2d_61">
    <path d="M 313.897328 132.455248 
L 325.91701 132.455248 
" clip-path="url(#pa5f9e110fb)" style="fill: none; stroke: #000000; stroke-linecap: square"/>
   </g>
   <g id="line2d_62">
    <path d="M 313.897328 50.9608 
L 325.91701 50.9608 
" clip-path="url(#pa5f9e110fb)" style="fill: none; stroke: #000000; stroke-linecap: square"/>
   </g>
   <g id="line2d_63"/>
   <g id="patch_11">
    <path d="M 361.308296 96.23419 
L 385.34766 96.23419 
L 385.34766 77.689806 
L 361.308296 77.689806 
L 361.308296 96.23419 
z
" clip-path="url(#pa5f9e110fb)" style="fill: #f28b30; opacity: 0.75; stroke: #000000; stroke-linejoin: miter"/>
   </g>
   <g id="line2d_64">
    <path d="M 373.327978 96.23419 
L 373.327978 121.855107 
" clip-path="url(#pa5f9e110fb)" style="fill: none; stroke: #000000; stroke-linecap: square"/>
   </g>
   <g id="line2d_65">
    <path d="M 373.327978 77.689806 
L 373.327978 52.977641 
" clip-path="url(#pa5f9e110fb)" style="fill: none; stroke: #000000; stroke-linecap: square"/>
   </g>
   <g id="line2d_66">
    <path d="M 367.318137 121.855107 
L 379.337819 121.855107 
" clip-path="url(#pa5f9e110fb)" style="fill: none; stroke: #000000; stroke-linecap: square"/>
   </g>
   <g id="line2d_67">
    <path d="M 367.318137 52.977641 
L 379.337819 52.977641 
" clip-path="url(#pa5f9e110fb)" style="fill: none; stroke: #000000; stroke-linecap: square"/>
   </g>
   <g id="line2d_68">
    <g clip-path="url(#pa5f9e110fb)">
     <use xlink:href="#m75ec8dba42" x="373.327978" y="126.521983" style="fill-opacity: 0; stroke: #000000"/>
     <use xlink:href="#m75ec8dba42" x="373.327978" y="45.824891" style="fill-opacity: 0; stroke: #000000"/>
    </g>
   </g>
   <g id="patch_12">
    <path d="M 414.729105 99.669856 
L 438.768469 99.669856 
L 438.768469 76.276845 
L 414.729105 76.276845 
L 414.729105 99.669856 
z
" clip-path="url(#pa5f9e110fb)" style="fill: #e05c4b; opacity: 0.75; stroke: #000000; stroke-linejoin: miter"/>
   </g>
   <g id="line2d_69">
    <path d="M 426.748787 99.669856 
L 426.748787 125.490111 
" clip-path="url(#pa5f9e110fb)" style="fill: none; stroke: #000000; stroke-linecap: square"/>
   </g>
   <g id="line2d_70">
    <path d="M 426.748787 76.276845 
L 426.748787 48.615636 
" clip-path="url(#pa5f9e110fb)" style="fill: none; stroke: #000000; stroke-linecap: square"/>
   </g>
   <g id="line2d_71">
    <path d="M 420.738946 125.490111 
L 432.758628 125.490111 
" clip-path="url(#pa5f9e110fb)" style="fill: none; stroke: #000000; stroke-linecap: square"/>
   </g>
   <g id="line2d_72">
    <path d="M 420.738946 48.615636 
L 432.758628 48.615636 
" clip-path="url(#pa5f9e110fb)" style="fill: none; stroke: #000000; stroke-linecap: square"/>
   </g>
   <g id="line2d_73"/>
   <g id="patch_13">
    <path d="M 468.149914 147.798483 
L 492.189278 147.798483 
L 492.189278 116.074278 
L 468.149914 116.074278 
L 468.149914 147.798483 
z
" clip-path="url(#pa5f9e110fb)" style="fill: #2e9e6b; opacity: 0.75; stroke: #000000; stroke-linejoin: miter"/>
   </g>
   <g id="line2d_74">
    <path d="M 480.169596 147.798483 
L 480.169596 183.087338 
" clip-path="url(#pa5f9e110fb)" style="fill: none; stroke: #000000; stroke-linecap: square"/>
   </g>
   <g id="line2d_75">
    <path d="M 480.169596 116.074278 
L 480.169596 75.256699 
" clip-path="url(#pa5f9e110fb)" style="fill: none; stroke: #000000; stroke-linecap: square"/>
   </g>
   <g id="line2d_76">
    <path d="M 474.159755 183.087338 
L 486.179437 183.087338 
" clip-path="url(#pa5f9e110fb)" style="fill: none; stroke: #000000; stroke-linecap: square"/>
   </g>
   <g id="line2d_77">
    <path d="M 474.159755 75.256699 
L 486.179437 75.256699 
" clip-path="url(#pa5f9e110fb)" style="fill: none; stroke: #000000; stroke-linecap: square"/>
   </g>
   <g id="line2d_78">
    <g clip-path="url(#pa5f9e110fb)">
     <use xlink:href="#m75ec8dba42" x="480.169596" y="197.69771" style="fill-opacity: 0; stroke: #000000"/>
     <use xlink:href="#m75ec8dba42" x="480.169596" y="55.67458" style="fill-opacity: 0; stroke: #000000"/>
    </g>
   </g>
   <g id="line2d_79">
    <path d="M 307.887487 85.974098 
L 331.926851 85.974098 
" clip-path="url(#pa5f9e110fb)" style="fill: none; stroke: #000000; stroke-width: 1.5"/>
   </g>
   <g id="line2d_80">
    <path d="M 361.308296 89.104892 
L 385.34766 89.104892 
" clip-path="url(#pa5f9e110fb)" style="fill: none; stroke: #000000; stroke-width: 1.5"/>
   </g>
   <g id="line2d_81">
    <path d="M 414.729105 88.694488 
L 438.768469 88.694488 
" clip-path="url(#pa5f9e110fb)" style="fill: none; stroke: #000000; stroke-width: 1.5"/>
   </g>
   <g id="line2d_82">
    <path d="M 468.149914 129.734858 
L 492.189278 129.734858 
" clip-path="url(#pa5f9e110fb)" style="fill: none; stroke: #000000; stroke-width: 1.5"/>
   </g>
   <g id="patch_14">
    <path d="M 293.196765 205.291351 
L 293.196765 38.23125 
" style="fill: none; stroke: #000000; stroke-width: 0.8; stroke-linejoin: miter; stroke-linecap: square"/>
   </g>
   <g id="patch_15">
    <path d="M 293.196765 205.291351 
L 506.88 205.291351 
" style="fill: none; stroke: #000000; stroke-width: 0.8; stroke-linejoin: miter; stroke-linecap: square"/>
   </g>
   <g id="text_25">
    <!-- (b) LPIPS Perceptual Distance per Pipeline -->
    <g transform="translate(301.983383 32.23125) scale(0.09 -0.09)">
     <defs>
      <path id="DejaVuSerif-63" d="M 3291 997 
Q 3169 466 2822 187 
Q 2475 -91 1925 -91 
Q 1200 -91 759 389 
Q 319 869 319 1663 
Q 319 2459 759 2936 
Q 1200 3413 1925 3413 
Q 2241 3413 2553 3339 
Q 2866 3266 3181 3116 
L 3181 2266 
L 2847 2266 
Q 2781 2703 2561 2903 
Q 2341 3103 1931 3103 
Q 1466 3103 1228 2742 
Q 991 2381 991 1663 
Q 991 944 1227 581 
Q 1463 219 1931 219 
Q 2303 219 2525 412 
Q 2747 606 2828 997 
L 3291 997 
z
" transform="scale(0.015625)"/>
      <path id="DejaVuSerif-75" d="M 2266 3322 
L 3341 3322 
L 3341 331 
L 3884 331 
L 3884 0 
L 2766 0 
L 2766 588 
Q 2606 256 2353 82 
Q 2100 -91 1766 -91 
Q 1213 -91 952 223 
Q 691 538 691 1209 
L 691 2988 
L 172 2988 
L 172 3322 
L 1269 3322 
L 1269 1388 
Q 1269 781 1417 556 
Q 1566 331 1947 331 
Q 2347 331 2556 625 
Q 2766 919 2766 1478 
L 2766 2988 
L 2266 2988 
L 2266 3322 
z
" transform="scale(0.015625)"/>
      <path id="DejaVuSerif-73" d="M 359 184 
L 359 959 
L 691 959 
Q 703 588 923 403 
Q 1144 219 1575 219 
Q 1963 219 2166 364 
Q 2369 509 2369 788 
Q 2369 1006 2220 1140 
Q 2072 1275 1594 1428 
L 1178 1569 
Q 750 1706 558 1912 
Q 366 2119 366 2438 
Q 366 2894 700 3153 
Q 1034 3413 1625 3413 
Q 1888 3413 2178 3344 
Q 2469 3275 2778 3144 
L 2778 2419 
L 2447 2419 
Q 2434 2741 2221 2922 
Q 2009 3103 1644 3103 
Q 1281 3103 1095 2975 
Q 909 2847 909 2591 
Q 909 2381 1050 2254 
Q 1191 2128 1613 1997 
L 2069 1856 
Q 2541 1709 2748 1489 
Q 2956 1269 2956 922 
Q 2956 450 2595 179 
Q 2234 -91 1600 -91 
Q 1278 -91 972 -22 
Q 666 47 359 184 
z
" transform="scale(0.015625)"/>
     </defs>
     <use xlink:href="#DejaVuSerif-28"/>
     <use xlink:href="#DejaVuSerif-62" transform="translate(39.013672 0)"/>
     <use xlink:href="#DejaVuSerif-29" transform="translate(103.027344 0)"/>
     <use xlink:href="#DejaVuSerif-20" transform="translate(142.041016 0)"/>
     <use xlink:href="#DejaVuSerif-4c" transform="translate(173.828125 0)"/>
     <use xlink:href="#DejaVuSerif-50" transform="translate(240.234375 0)"/>
     <use xlink:href="#DejaVuSerif-49" transform="translate(307.519531 0)"/>
     <use xlink:href="#DejaVuSerif-50" transform="translate(347.021484 0)"/>
     <use xlink:href="#DejaVuSerif-53" transform="translate(414.306641 0)"/>
     <use xlink:href="#DejaVuSerif-20" transform="translate(482.8125 0)"/>
     <use xlink:href="#DejaVuSerif-50" transform="translate(514.599609 0)"/>
     <use xlink:href="#DejaVuSerif-65" transform="translate(577.384766 0)"/>
     <use xlink:href="#DejaVuSerif-72" transform="translate(636.564453 0)"/>
     <use xlink:href="#DejaVuSerif-63" transform="translate(684.367188 0)"/>
     <use xlink:href="#DejaVuSerif-65" transform="translate(740.373047 0)"/>
     <use xlink:href="#DejaVuSerif-70" transform="translate(799.552734 0)"/>
     <use xlink:href="#DejaVuSerif-74" transform="translate(863.566406 0)"/>
     <use xlink:href="#DejaVuSerif-75" transform="translate(903.751953 0)"/>
     <use xlink:href="#DejaVuSerif-61" transform="translate(968.15625 0)"/>
     <use xlink:href="#DejaVuSerif-6c" transform="translate(1027.775391 0)"/>
     <use xlink:href="#DejaVuSerif-20" transform="translate(1059.757812 0)"/>
     <use xlink:href="#DejaVuSerif-44" transform="translate(1091.544922 0)"/>
     <use xlink:href="#DejaVuSerif-69" transform="translate(1171.720703 0)"/>
     <use xlink:href="#DejaVuSerif-73" transform="translate(1203.703125 0)"/>
     <use xlink:href="#DejaVuSerif-74" transform="translate(1255.021484 0)"/>
     <use xlink:href="#DejaVuSerif-61" transform="translate(1295.207031 0)"/>
     <use xlink:href="#DejaVuSerif-6e" transform="translate(1354.826172 0)"/>
     <use xlink:href="#DejaVuSerif-63" transform="translate(1419.230469 0)"/>
     <use xlink:href="#DejaVuSerif-65" transform="translate(1475.236328 0)"/>
     <use xlink:href="#DejaVuSerif-20" transform="translate(1534.416016 0)"/>
     <use xlink:href="#DejaVuSerif-70" transform="translate(1566.203125 0)"/>
     <use xlink:href="#DejaVuSerif-65" transform="translate(1630.216797 0)"/>
     <use xlink:href="#DejaVuSerif-72" transform="translate(1689.396484 0)"/>
     <use xlink:href="#DejaVuSerif-20" transform="translate(1737.199219 0)"/>
     <use xlink:href="#DejaVuSerif-50" transform="translate(1768.986328 0)"/>
     <use xlink:href="#DejaVuSerif-69" transform="translate(1836.271484 0)"/>
     <use xlink:href="#DejaVuSerif-70" transform="translate(1868.253906 0)"/>
     <use xlink:href="#DejaVuSerif-65" transform="translate(1932.267578 0)"/>
     <use xlink:href="#DejaVuSerif-6c" transform="translate(1991.447266 0)"/>
     <use xlink:href="#DejaVuSerif-69" transform="translate(2023.429688 0)"/>
     <use xlink:href="#DejaVuSerif-6e" transform="translate(2055.412109 0)"/>
     <use xlink:href="#DejaVuSerif-65" transform="translate(2119.816406 0)"/>
    </g>
   </g>
  </g>
  <g id="text_26">
   <!-- Fig. 9.  PSNR and LPIPS Across All Pipelines -->
   <g transform="translate(160.911133 3.938672) scale(0.085 -0.085)">
    <defs>
     <path id="DejaVuSerif-67" d="M 3359 2988 
L 3359 72 
Q 3359 -644 2965 -1033 
Q 2572 -1422 1844 -1422 
Q 1516 -1422 1216 -1362 
Q 916 -1303 641 -1184 
L 641 -488 
L 941 -488 
Q 997 -813 1206 -963 
Q 1416 -1113 1806 -1113 
Q 2313 -1113 2548 -827 
Q 2784 -541 2784 72 
L 2784 519 
Q 2616 206 2355 57 
Q 2094 -91 1709 -91 
Q 1097 -91 708 395 
Q 319 881 319 1663 
Q 319 2444 706 2928 
Q 1094 3413 1709 3413 
Q 2094 3413 2355 3264 
Q 2616 3116 2784 2803 
L 2784 3322 
L 3909 3322 
L 3909 2988 
L 3359 2988 
z
M 2784 1825 
Q 2784 2422 2554 2737 
Q 2325 3053 1888 3053 
Q 1444 3053 1217 2703 
Q 991 2353 991 1663 
Q 991 975 1217 622 
Q 1444 269 1888 269 
Q 2325 269 2554 583 
Q 2784 897 2784 1497 
L 2784 1825 
z
" transform="scale(0.015625)"/>
    </defs>
    <use xlink:href="#DejaVuSerif-46"/>
    <use xlink:href="#DejaVuSerif-69" transform="translate(69.384766 0)"/>
    <use xlink:href="#DejaVuSerif-67" transform="translate(101.367188 0)"/>
    <use xlink:href="#DejaVuSerif-2e" transform="translate(165.380859 0)"/>
    <use xlink:href="#DejaVuSerif-20" transform="translate(197.167969 0)"/>
    <use xlink:href="#DejaVuSerif-39" transform="translate(228.955078 0)"/>
    <use xlink:href="#DejaVuSerif-2e" transform="translate(292.578125 0)"/>
    <use xlink:href="#DejaVuSerif-20" transform="translate(324.365234 0)"/>
    <use xlink:href="#DejaVuSerif-20" transform="translate(356.152344 0)"/>
    <use xlink:href="#DejaVuSerif-50" transform="translate(387.939453 0)"/>
    <use xlink:href="#DejaVuSerif-53" transform="translate(455.224609 0)"/>
    <use xlink:href="#DejaVuSerif-4e" transform="translate(523.730469 0)"/>
    <use xlink:href="#DejaVuSerif-52" transform="translate(611.230469 0)"/>
    <use xlink:href="#DejaVuSerif-20" transform="translate(686.523438 0)"/>
    <use xlink:href="#DejaVuSerif-61" transform="translate(718.310547 0)"/>
    <use xlink:href="#DejaVuSerif-6e" transform="translate(777.929688 0)"/>
    <use xlink:href="#DejaVuSerif-64" transform="translate(842.333984 0)"/>
    <use xlink:href="#DejaVuSerif-20" transform="translate(906.347656 0)"/>
    <use xlink:href="#DejaVuSerif-4c" transform="translate(938.134766 0)"/>
    <use xlink:href="#DejaVuSerif-50" transform="translate(1004.541016 0)"/>
    <use xlink:href="#DejaVuSerif-49" transform="translate(1071.826172 0)"/>
    <use xlink:href="#DejaVuSerif-50" transform="translate(1111.328125 0)"/>
    <use xlink:href="#DejaVuSerif-53" transform="translate(1178.613281 0)"/>
    <use xlink:href="#DejaVuSerif-20" transform="translate(1247.119141 0)"/>
    <use xlink:href="#DejaVuSerif-41" transform="translate(1278.90625 0)"/>
    <use xlink:href="#DejaVuSerif-63" transform="translate(1351.123047 0)"/>
    <use xlink:href="#DejaVuSerif-72" transform="translate(1407.128906 0)"/>
    <use xlink:href="#DejaVuSerif-6f" transform="translate(1454.931641 0)"/>
    <use xlink:href="#DejaVuSerif-73" transform="translate(1515.136719 0)"/>
    <use xlink:href="#DejaVuSerif-73" transform="translate(1566.455078 0)"/>
    <use xlink:href="#DejaVuSerif-20" transform="translate(1617.773438 0)"/>
    <use xlink:href="#DejaVuSerif-41" transform="translate(1649.560547 0)"/>
    <use xlink:href="#DejaVuSerif-6c" transform="translate(1721.777344 0)"/>
    <use xlink:href="#DejaVuSerif-6c" transform="translate(1753.759766 0)"/>
    <use xlink:href="#DejaVuSerif-20" transform="translate(1785.742188 0)"/>
    <use xlink:href="#DejaVuSerif-50" transform="translate(1817.529297 0)"/>
    <use xlink:href="#DejaVuSerif-69" transform="translate(1884.814453 0)"/>
    <use xlink:href="#DejaVuSerif-70" transform="translate(1916.796875 0)"/>
    <use xlink:href="#DejaVuSerif-65" transform="translate(1980.810547 0)"/>
    <use xlink:href="#DejaVuSerif-6c" transform="translate(2039.990234 0)"/>
    <use xlink:href="#DejaVuSerif-69" transform="translate(2071.972656 0)"/>
    <use xlink:href="#DejaVuSerif-6e" transform="translate(2103.955078 0)"/>
    <use xlink:href="#DejaVuSerif-65" transform="translate(2168.359375 0)"/>
    <use xlink:href="#DejaVuSerif-73" transform="translate(2227.539062 0)"/>
   </g>
  </g>
 </g>
 <defs>
  <clipPath id="p8542cb48fb">
   <rect x="39.53353" y="38.23125" width="213.683235" height="167.060101"/>
  </clipPath>
  <clipPath id="pa5f9e110fb">
   <rect x="293.196765" y="38.23125" width="213.683235" height="167.060101"/>
  </clipPath>
 </defs>
</svg>
